G04 #@! TF.FileFunction,Soldermask,Top*
%FSLAX46Y46*%
G04 Gerber Fmt 4.6, Leading zero omitted, Abs format (unit mm)*
G04 Created by KiCad (PCBNEW 4.0.7-e2-6376~58~ubuntu16.04.1) date Mon Mar 19 23:41:14 2018*
%MOMM*%
%LPD*%
G01*
G04 APERTURE LIST*
%ADD10C,0.100000*%
%ADD11R,1.524000X6.000000*%
%ADD12C,6.550000*%
%ADD13R,0.750000X1.200000*%
%ADD14R,0.900000X1.200000*%
%ADD15R,2.600000X2.000000*%
%ADD16O,2.600000X2.000000*%
%ADD17R,2.000000X2.600000*%
%ADD18O,2.000000X2.600000*%
%ADD19R,1.727200X1.727200*%
%ADD20O,1.700000X1.700000*%
%ADD21R,1.700000X1.700000*%
%ADD22R,1.400000X1.400000*%
%ADD23C,1.400000*%
%ADD24R,0.600000X1.550000*%
%ADD25R,1.800000X3.600000*%
%ADD26O,1.800000X3.600000*%
%ADD27R,1.560000X0.650000*%
%ADD28R,1.200000X0.900000*%
%ADD29R,0.800000X1.900000*%
%ADD30C,2.000000*%
G04 APERTURE END LIST*
D10*
D11*
X130302000Y-105886000D03*
X138430000Y-83598000D03*
X130302000Y-83598000D03*
X127762000Y-105886000D03*
X138430000Y-105886000D03*
X140970000Y-105886000D03*
X140970000Y-83598000D03*
X127762000Y-83598000D03*
D12*
X176318200Y-70611500D03*
X176318200Y-119611500D03*
X118318200Y-119611500D03*
X118318200Y-70611500D03*
D13*
X146558000Y-106238000D03*
X146558000Y-108138000D03*
D14*
X162306000Y-119550000D03*
X162306000Y-121750000D03*
X170688000Y-119550000D03*
X170688000Y-121750000D03*
D15*
X176276000Y-77216000D03*
D16*
X176276000Y-79756000D03*
X176276000Y-82296000D03*
D17*
X156718000Y-119380000D03*
D18*
X154178000Y-119380000D03*
D17*
X167640000Y-119380000D03*
D18*
X165100000Y-119380000D03*
D17*
X149606000Y-113792000D03*
D18*
X147066000Y-113792000D03*
X144526000Y-113792000D03*
D17*
X130302000Y-119380000D03*
D18*
X127762000Y-119380000D03*
X125222000Y-119380000D03*
D19*
X123188200Y-71881500D03*
D20*
X123188200Y-69341500D03*
X125728200Y-71881500D03*
X125728200Y-69341500D03*
X128268200Y-71881500D03*
X128268200Y-69341500D03*
X130808200Y-71881500D03*
X130808200Y-69341500D03*
X133348200Y-71881500D03*
X133348200Y-69341500D03*
X135888200Y-71881500D03*
X135888200Y-69341500D03*
X138428200Y-71881500D03*
X138428200Y-69341500D03*
X140968200Y-71881500D03*
X140968200Y-69341500D03*
X143508200Y-71881500D03*
X143508200Y-69341500D03*
X146048200Y-71881500D03*
X146048200Y-69341500D03*
X148588200Y-71881500D03*
X148588200Y-69341500D03*
X151128200Y-71881500D03*
X151128200Y-69341500D03*
X153668200Y-71881500D03*
X153668200Y-69341500D03*
X156208200Y-71881500D03*
X156208200Y-69341500D03*
X158748200Y-71881500D03*
X158748200Y-69341500D03*
X161288200Y-71881500D03*
X161288200Y-69341500D03*
X163828200Y-71881500D03*
X163828200Y-69341500D03*
X166368200Y-71881500D03*
X166368200Y-69341500D03*
X168908200Y-71881500D03*
X168908200Y-69341500D03*
X171448200Y-71881500D03*
X171448200Y-69341500D03*
D15*
X176022000Y-96012000D03*
D16*
X176022000Y-98552000D03*
X176022000Y-101092000D03*
X176022000Y-103632000D03*
D15*
X176022000Y-87630000D03*
D16*
X176022000Y-90170000D03*
D21*
X171704000Y-76708000D03*
D20*
X171704000Y-79248000D03*
D14*
X162306000Y-115486000D03*
X162306000Y-117686000D03*
X170688000Y-115486000D03*
X170688000Y-117686000D03*
X148336000Y-108288000D03*
X148336000Y-106088000D03*
X150114000Y-108288000D03*
X150114000Y-106088000D03*
X168910000Y-85428000D03*
X168910000Y-83228000D03*
X165354000Y-85428000D03*
X165354000Y-83228000D03*
X167132000Y-85428000D03*
X167132000Y-83228000D03*
D22*
X144526000Y-118618000D03*
D23*
X147026000Y-118618000D03*
X149526000Y-118618000D03*
X144526000Y-121918000D03*
X147026000Y-121918000D03*
X149526000Y-121918000D03*
D24*
X169037000Y-75786000D03*
X167767000Y-75786000D03*
X166497000Y-75786000D03*
X165227000Y-75786000D03*
X165227000Y-81186000D03*
X166497000Y-81186000D03*
X167767000Y-81186000D03*
X169037000Y-81186000D03*
D17*
X138430000Y-119380000D03*
D18*
X135890000Y-119380000D03*
D15*
X176022000Y-108204000D03*
D16*
X176022000Y-110744000D03*
X176022000Y-113284000D03*
D25*
X135128000Y-114554000D03*
D26*
X138938000Y-114554000D03*
D21*
X117348000Y-112522000D03*
D20*
X117348000Y-109982000D03*
X117348000Y-107442000D03*
X117348000Y-104902000D03*
X117348000Y-102362000D03*
X117348000Y-99822000D03*
X117348000Y-97282000D03*
X117348000Y-94742000D03*
X117348000Y-92202000D03*
X117348000Y-89662000D03*
X117348000Y-87122000D03*
X117348000Y-84582000D03*
X117348000Y-82042000D03*
X117348000Y-79502000D03*
D27*
X127936000Y-75250000D03*
X127936000Y-76200000D03*
X127936000Y-77150000D03*
X130636000Y-77150000D03*
X130636000Y-75250000D03*
X130636000Y-76200000D03*
D28*
X126408000Y-78740000D03*
X128608000Y-78740000D03*
X132418000Y-78740000D03*
X130218000Y-78740000D03*
D12*
X122542300Y-76504800D03*
X122570240Y-113588800D03*
D29*
X134432000Y-78462000D03*
X136332000Y-78462000D03*
X135382000Y-75462000D03*
D30*
X170870000Y-112522000D03*
X166370000Y-112522000D03*
X170870000Y-106022000D03*
X166370000Y-106022000D03*
M02*
