G04 #@! TF.FileFunction,Legend,Bot*
%FSLAX46Y46*%
G04 Gerber Fmt 4.6, Leading zero omitted, Abs format (unit mm)*
G04 Created by KiCad (PCBNEW 4.0.7-e2-6376~58~ubuntu16.04.1) date Mon Mar 19 23:41:14 2018*
%MOMM*%
%LPD*%
G01*
G04 APERTURE LIST*
%ADD10C,0.100000*%
%ADD11C,0.300000*%
%ADD12C,0.010000*%
G04 APERTURE END LIST*
D10*
D11*
X153125714Y-81713571D02*
X152768571Y-83213571D01*
X152482857Y-82142143D01*
X152197143Y-83213571D01*
X151840000Y-81713571D01*
X150625714Y-83213571D02*
X150625714Y-82427857D01*
X150697143Y-82285000D01*
X150840000Y-82213571D01*
X151125714Y-82213571D01*
X151268571Y-82285000D01*
X150625714Y-83142143D02*
X150768571Y-83213571D01*
X151125714Y-83213571D01*
X151268571Y-83142143D01*
X151340000Y-82999286D01*
X151340000Y-82856429D01*
X151268571Y-82713571D01*
X151125714Y-82642143D01*
X150768571Y-82642143D01*
X150625714Y-82570714D01*
X149911428Y-83213571D02*
X149911428Y-82213571D01*
X149911428Y-82499286D02*
X149840000Y-82356429D01*
X149768571Y-82285000D01*
X149625714Y-82213571D01*
X149482857Y-82213571D01*
X148982857Y-82213571D02*
X148982857Y-83213571D01*
X148982857Y-82356429D02*
X148911429Y-82285000D01*
X148768571Y-82213571D01*
X148554286Y-82213571D01*
X148411429Y-82285000D01*
X148340000Y-82427857D01*
X148340000Y-83213571D01*
X147625714Y-83213571D02*
X147625714Y-82213571D01*
X147625714Y-81713571D02*
X147697143Y-81785000D01*
X147625714Y-81856429D01*
X147554286Y-81785000D01*
X147625714Y-81713571D01*
X147625714Y-81856429D01*
X146911428Y-82213571D02*
X146911428Y-83213571D01*
X146911428Y-82356429D02*
X146840000Y-82285000D01*
X146697142Y-82213571D01*
X146482857Y-82213571D01*
X146340000Y-82285000D01*
X146268571Y-82427857D01*
X146268571Y-83213571D01*
X144911428Y-82213571D02*
X144911428Y-83427857D01*
X144982857Y-83570714D01*
X145054285Y-83642143D01*
X145197142Y-83713571D01*
X145411428Y-83713571D01*
X145554285Y-83642143D01*
X144911428Y-83142143D02*
X145054285Y-83213571D01*
X145339999Y-83213571D01*
X145482857Y-83142143D01*
X145554285Y-83070714D01*
X145625714Y-82927857D01*
X145625714Y-82499286D01*
X145554285Y-82356429D01*
X145482857Y-82285000D01*
X145339999Y-82213571D01*
X145054285Y-82213571D01*
X144911428Y-82285000D01*
X144197142Y-83070714D02*
X144125714Y-83142143D01*
X144197142Y-83213571D01*
X144268571Y-83142143D01*
X144197142Y-83070714D01*
X144197142Y-83213571D01*
X144197142Y-82642143D02*
X144268571Y-81785000D01*
X144197142Y-81713571D01*
X144125714Y-81785000D01*
X144197142Y-82642143D01*
X144197142Y-81713571D01*
X165197142Y-85763571D02*
X165197142Y-84263571D01*
X164625714Y-84263571D01*
X164482856Y-84335000D01*
X164411428Y-84406429D01*
X164339999Y-84549286D01*
X164339999Y-84763571D01*
X164411428Y-84906429D01*
X164482856Y-84977857D01*
X164625714Y-85049286D01*
X165197142Y-85049286D01*
X163482856Y-85763571D02*
X163625714Y-85692143D01*
X163697142Y-85620714D01*
X163768571Y-85477857D01*
X163768571Y-85049286D01*
X163697142Y-84906429D01*
X163625714Y-84835000D01*
X163482856Y-84763571D01*
X163268571Y-84763571D01*
X163125714Y-84835000D01*
X163054285Y-84906429D01*
X162982856Y-85049286D01*
X162982856Y-85477857D01*
X163054285Y-85620714D01*
X163125714Y-85692143D01*
X163268571Y-85763571D01*
X163482856Y-85763571D01*
X162482856Y-84763571D02*
X162197142Y-85763571D01*
X161911428Y-85049286D01*
X161625713Y-85763571D01*
X161339999Y-84763571D01*
X160197142Y-85692143D02*
X160339999Y-85763571D01*
X160625713Y-85763571D01*
X160768570Y-85692143D01*
X160839999Y-85549286D01*
X160839999Y-84977857D01*
X160768570Y-84835000D01*
X160625713Y-84763571D01*
X160339999Y-84763571D01*
X160197142Y-84835000D01*
X160125713Y-84977857D01*
X160125713Y-85120714D01*
X160839999Y-85263571D01*
X159482856Y-85763571D02*
X159482856Y-84763571D01*
X159482856Y-85049286D02*
X159411428Y-84906429D01*
X159339999Y-84835000D01*
X159197142Y-84763571D01*
X159054285Y-84763571D01*
X157625714Y-84763571D02*
X157054285Y-84763571D01*
X157411428Y-84263571D02*
X157411428Y-85549286D01*
X157340000Y-85692143D01*
X157197142Y-85763571D01*
X157054285Y-85763571D01*
X156554285Y-85763571D02*
X156554285Y-84263571D01*
X155911428Y-85763571D02*
X155911428Y-84977857D01*
X155982857Y-84835000D01*
X156125714Y-84763571D01*
X156339999Y-84763571D01*
X156482857Y-84835000D01*
X156554285Y-84906429D01*
X154625714Y-85692143D02*
X154768571Y-85763571D01*
X155054285Y-85763571D01*
X155197142Y-85692143D01*
X155268571Y-85549286D01*
X155268571Y-84977857D01*
X155197142Y-84835000D01*
X155054285Y-84763571D01*
X154768571Y-84763571D01*
X154625714Y-84835000D01*
X154554285Y-84977857D01*
X154554285Y-85120714D01*
X155268571Y-85263571D01*
X152768571Y-85763571D02*
X152768571Y-84263571D01*
X152768571Y-84835000D02*
X152625714Y-84763571D01*
X152340000Y-84763571D01*
X152197143Y-84835000D01*
X152125714Y-84906429D01*
X152054285Y-85049286D01*
X152054285Y-85477857D01*
X152125714Y-85620714D01*
X152197143Y-85692143D01*
X152340000Y-85763571D01*
X152625714Y-85763571D01*
X152768571Y-85692143D01*
X151197142Y-85763571D02*
X151340000Y-85692143D01*
X151411428Y-85620714D01*
X151482857Y-85477857D01*
X151482857Y-85049286D01*
X151411428Y-84906429D01*
X151340000Y-84835000D01*
X151197142Y-84763571D01*
X150982857Y-84763571D01*
X150840000Y-84835000D01*
X150768571Y-84906429D01*
X150697142Y-85049286D01*
X150697142Y-85477857D01*
X150768571Y-85620714D01*
X150840000Y-85692143D01*
X150982857Y-85763571D01*
X151197142Y-85763571D01*
X149411428Y-85763571D02*
X149411428Y-84977857D01*
X149482857Y-84835000D01*
X149625714Y-84763571D01*
X149911428Y-84763571D01*
X150054285Y-84835000D01*
X149411428Y-85692143D02*
X149554285Y-85763571D01*
X149911428Y-85763571D01*
X150054285Y-85692143D01*
X150125714Y-85549286D01*
X150125714Y-85406429D01*
X150054285Y-85263571D01*
X149911428Y-85192143D01*
X149554285Y-85192143D01*
X149411428Y-85120714D01*
X148697142Y-85763571D02*
X148697142Y-84763571D01*
X148697142Y-85049286D02*
X148625714Y-84906429D01*
X148554285Y-84835000D01*
X148411428Y-84763571D01*
X148268571Y-84763571D01*
X147125714Y-85763571D02*
X147125714Y-84263571D01*
X147125714Y-85692143D02*
X147268571Y-85763571D01*
X147554285Y-85763571D01*
X147697143Y-85692143D01*
X147768571Y-85620714D01*
X147840000Y-85477857D01*
X147840000Y-85049286D01*
X147768571Y-84906429D01*
X147697143Y-84835000D01*
X147554285Y-84763571D01*
X147268571Y-84763571D01*
X147125714Y-84835000D01*
X144625714Y-85763571D02*
X144625714Y-84263571D01*
X144625714Y-85692143D02*
X144768571Y-85763571D01*
X145054285Y-85763571D01*
X145197143Y-85692143D01*
X145268571Y-85620714D01*
X145340000Y-85477857D01*
X145340000Y-85049286D01*
X145268571Y-84906429D01*
X145197143Y-84835000D01*
X145054285Y-84763571D01*
X144768571Y-84763571D01*
X144625714Y-84835000D01*
X143911428Y-85763571D02*
X143911428Y-84763571D01*
X143911428Y-84263571D02*
X143982857Y-84335000D01*
X143911428Y-84406429D01*
X143840000Y-84335000D01*
X143911428Y-84263571D01*
X143911428Y-84406429D01*
X143197142Y-85763571D02*
X143197142Y-84763571D01*
X143197142Y-85049286D02*
X143125714Y-84906429D01*
X143054285Y-84835000D01*
X142911428Y-84763571D01*
X142768571Y-84763571D01*
X141697143Y-85692143D02*
X141840000Y-85763571D01*
X142125714Y-85763571D01*
X142268571Y-85692143D01*
X142340000Y-85549286D01*
X142340000Y-84977857D01*
X142268571Y-84835000D01*
X142125714Y-84763571D01*
X141840000Y-84763571D01*
X141697143Y-84835000D01*
X141625714Y-84977857D01*
X141625714Y-85120714D01*
X142340000Y-85263571D01*
X140340000Y-85692143D02*
X140482857Y-85763571D01*
X140768571Y-85763571D01*
X140911429Y-85692143D01*
X140982857Y-85620714D01*
X141054286Y-85477857D01*
X141054286Y-85049286D01*
X140982857Y-84906429D01*
X140911429Y-84835000D01*
X140768571Y-84763571D01*
X140482857Y-84763571D01*
X140340000Y-84835000D01*
X139911429Y-84763571D02*
X139340000Y-84763571D01*
X139697143Y-84263571D02*
X139697143Y-85549286D01*
X139625715Y-85692143D01*
X139482857Y-85763571D01*
X139340000Y-85763571D01*
X138625714Y-85763571D02*
X138768572Y-85692143D01*
X138840000Y-85549286D01*
X138840000Y-84263571D01*
X138197143Y-84763571D02*
X137840000Y-85763571D01*
X137482858Y-84763571D02*
X137840000Y-85763571D01*
X137982858Y-86120714D01*
X138054286Y-86192143D01*
X138197143Y-86263571D01*
X135911429Y-84763571D02*
X135625715Y-85763571D01*
X135340001Y-85049286D01*
X135054286Y-85763571D01*
X134768572Y-84763571D01*
X134197143Y-85763571D02*
X134197143Y-84763571D01*
X134197143Y-84263571D02*
X134268572Y-84335000D01*
X134197143Y-84406429D01*
X134125715Y-84335000D01*
X134197143Y-84263571D01*
X134197143Y-84406429D01*
X133697143Y-84763571D02*
X133125714Y-84763571D01*
X133482857Y-84263571D02*
X133482857Y-85549286D01*
X133411429Y-85692143D01*
X133268571Y-85763571D01*
X133125714Y-85763571D01*
X132625714Y-85763571D02*
X132625714Y-84263571D01*
X131982857Y-85763571D02*
X131982857Y-84977857D01*
X132054286Y-84835000D01*
X132197143Y-84763571D01*
X132411428Y-84763571D01*
X132554286Y-84835000D01*
X132625714Y-84906429D01*
X158554284Y-88313571D02*
X158554284Y-87527857D01*
X158625713Y-87385000D01*
X158768570Y-87313571D01*
X159054284Y-87313571D01*
X159197141Y-87385000D01*
X158554284Y-88242143D02*
X158697141Y-88313571D01*
X159054284Y-88313571D01*
X159197141Y-88242143D01*
X159268570Y-88099286D01*
X159268570Y-87956429D01*
X159197141Y-87813571D01*
X159054284Y-87742143D01*
X158697141Y-87742143D01*
X158554284Y-87670714D01*
X156768570Y-88242143D02*
X156625713Y-88313571D01*
X156339998Y-88313571D01*
X156197141Y-88242143D01*
X156125713Y-88099286D01*
X156125713Y-88027857D01*
X156197141Y-87885000D01*
X156339998Y-87813571D01*
X156554284Y-87813571D01*
X156697141Y-87742143D01*
X156768570Y-87599286D01*
X156768570Y-87527857D01*
X156697141Y-87385000D01*
X156554284Y-87313571D01*
X156339998Y-87313571D01*
X156197141Y-87385000D01*
X155697141Y-87313571D02*
X155125712Y-87313571D01*
X155482855Y-86813571D02*
X155482855Y-88099286D01*
X155411427Y-88242143D01*
X155268569Y-88313571D01*
X155125712Y-88313571D01*
X153982855Y-88313571D02*
X153982855Y-87527857D01*
X154054284Y-87385000D01*
X154197141Y-87313571D01*
X154482855Y-87313571D01*
X154625712Y-87385000D01*
X153982855Y-88242143D02*
X154125712Y-88313571D01*
X154482855Y-88313571D01*
X154625712Y-88242143D01*
X154697141Y-88099286D01*
X154697141Y-87956429D01*
X154625712Y-87813571D01*
X154482855Y-87742143D01*
X154125712Y-87742143D01*
X153982855Y-87670714D01*
X153268569Y-88313571D02*
X153268569Y-86813571D01*
X153268569Y-87385000D02*
X153125712Y-87313571D01*
X152839998Y-87313571D01*
X152697141Y-87385000D01*
X152625712Y-87456429D01*
X152554283Y-87599286D01*
X152554283Y-88027857D01*
X152625712Y-88170714D01*
X152697141Y-88242143D01*
X152839998Y-88313571D01*
X153125712Y-88313571D01*
X153268569Y-88242143D01*
X151697140Y-88313571D02*
X151839998Y-88242143D01*
X151911426Y-88099286D01*
X151911426Y-86813571D01*
X150554284Y-88242143D02*
X150697141Y-88313571D01*
X150982855Y-88313571D01*
X151125712Y-88242143D01*
X151197141Y-88099286D01*
X151197141Y-87527857D01*
X151125712Y-87385000D01*
X150982855Y-87313571D01*
X150697141Y-87313571D01*
X150554284Y-87385000D01*
X150482855Y-87527857D01*
X150482855Y-87670714D01*
X151197141Y-87813571D01*
X147982855Y-86813571D02*
X148697141Y-86813571D01*
X148768570Y-87527857D01*
X148697141Y-87456429D01*
X148554284Y-87385000D01*
X148197141Y-87385000D01*
X148054284Y-87456429D01*
X147982855Y-87527857D01*
X147911427Y-87670714D01*
X147911427Y-88027857D01*
X147982855Y-88170714D01*
X148054284Y-88242143D01*
X148197141Y-88313571D01*
X148554284Y-88313571D01*
X148697141Y-88242143D01*
X148768570Y-88170714D01*
X147482856Y-86813571D02*
X146982856Y-88313571D01*
X146482856Y-86813571D01*
X144625713Y-88313571D02*
X144768571Y-88242143D01*
X144839999Y-88170714D01*
X144911428Y-88027857D01*
X144911428Y-87599286D01*
X144839999Y-87456429D01*
X144768571Y-87385000D01*
X144625713Y-87313571D01*
X144411428Y-87313571D01*
X144268571Y-87385000D01*
X144197142Y-87456429D01*
X144125713Y-87599286D01*
X144125713Y-88027857D01*
X144197142Y-88170714D01*
X144268571Y-88242143D01*
X144411428Y-88313571D01*
X144625713Y-88313571D01*
X143482856Y-88313571D02*
X143482856Y-87313571D01*
X143482856Y-87599286D02*
X143411428Y-87456429D01*
X143339999Y-87385000D01*
X143197142Y-87313571D01*
X143054285Y-87313571D01*
X140625714Y-88313571D02*
X141482857Y-88313571D01*
X141054285Y-88313571D02*
X141054285Y-86813571D01*
X141197142Y-87027857D01*
X141340000Y-87170714D01*
X141482857Y-87242143D01*
X140054286Y-86956429D02*
X139982857Y-86885000D01*
X139840000Y-86813571D01*
X139482857Y-86813571D01*
X139340000Y-86885000D01*
X139268571Y-86956429D01*
X139197143Y-87099286D01*
X139197143Y-87242143D01*
X139268571Y-87456429D01*
X140125714Y-88313571D01*
X139197143Y-88313571D01*
X138768572Y-86813571D02*
X138268572Y-88313571D01*
X137768572Y-86813571D01*
X166268572Y-90863571D02*
X166268572Y-89363571D01*
X166268572Y-89935000D02*
X166125715Y-89863571D01*
X165840001Y-89863571D01*
X165697144Y-89935000D01*
X165625715Y-90006429D01*
X165554286Y-90149286D01*
X165554286Y-90577857D01*
X165625715Y-90720714D01*
X165697144Y-90792143D01*
X165840001Y-90863571D01*
X166125715Y-90863571D01*
X166268572Y-90792143D01*
X164268572Y-89863571D02*
X164268572Y-90863571D01*
X164911429Y-89863571D02*
X164911429Y-90649286D01*
X164840001Y-90792143D01*
X164697143Y-90863571D01*
X164482858Y-90863571D01*
X164340001Y-90792143D01*
X164268572Y-90720714D01*
X163768572Y-89863571D02*
X163197143Y-89863571D01*
X163554286Y-89363571D02*
X163554286Y-90649286D01*
X163482858Y-90792143D01*
X163340000Y-90863571D01*
X163197143Y-90863571D01*
X161554286Y-89863571D02*
X161554286Y-90863571D01*
X161554286Y-90006429D02*
X161482858Y-89935000D01*
X161340000Y-89863571D01*
X161125715Y-89863571D01*
X160982858Y-89935000D01*
X160911429Y-90077857D01*
X160911429Y-90863571D01*
X159982857Y-90863571D02*
X160125715Y-90792143D01*
X160197143Y-90720714D01*
X160268572Y-90577857D01*
X160268572Y-90149286D01*
X160197143Y-90006429D01*
X160125715Y-89935000D01*
X159982857Y-89863571D01*
X159768572Y-89863571D01*
X159625715Y-89935000D01*
X159554286Y-90006429D01*
X159482857Y-90149286D01*
X159482857Y-90577857D01*
X159554286Y-90720714D01*
X159625715Y-90792143D01*
X159768572Y-90863571D01*
X159982857Y-90863571D01*
X159054286Y-89863571D02*
X158482857Y-89863571D01*
X158840000Y-89363571D02*
X158840000Y-90649286D01*
X158768572Y-90792143D01*
X158625714Y-90863571D01*
X158482857Y-90863571D01*
X156840000Y-90863571D02*
X156840000Y-89363571D01*
X156840000Y-89935000D02*
X156697143Y-89863571D01*
X156411429Y-89863571D01*
X156268572Y-89935000D01*
X156197143Y-90006429D01*
X156125714Y-90149286D01*
X156125714Y-90577857D01*
X156197143Y-90720714D01*
X156268572Y-90792143D01*
X156411429Y-90863571D01*
X156697143Y-90863571D01*
X156840000Y-90792143D01*
X155268571Y-90863571D02*
X155411429Y-90792143D01*
X155482857Y-90720714D01*
X155554286Y-90577857D01*
X155554286Y-90149286D01*
X155482857Y-90006429D01*
X155411429Y-89935000D01*
X155268571Y-89863571D01*
X155054286Y-89863571D01*
X154911429Y-89935000D01*
X154840000Y-90006429D01*
X154768571Y-90149286D01*
X154768571Y-90577857D01*
X154840000Y-90720714D01*
X154911429Y-90792143D01*
X155054286Y-90863571D01*
X155268571Y-90863571D01*
X154340000Y-89863571D02*
X153768571Y-89863571D01*
X154125714Y-89363571D02*
X154125714Y-90649286D01*
X154054286Y-90792143D01*
X153911428Y-90863571D01*
X153768571Y-90863571D01*
X153268571Y-90863571D02*
X153268571Y-89363571D01*
X152625714Y-90863571D02*
X152625714Y-90077857D01*
X152697143Y-89935000D01*
X152840000Y-89863571D01*
X153054285Y-89863571D01*
X153197143Y-89935000D01*
X153268571Y-90006429D01*
X150125714Y-90863571D02*
X150125714Y-90077857D01*
X150197143Y-89935000D01*
X150340000Y-89863571D01*
X150625714Y-89863571D01*
X150768571Y-89935000D01*
X150125714Y-90792143D02*
X150268571Y-90863571D01*
X150625714Y-90863571D01*
X150768571Y-90792143D01*
X150840000Y-90649286D01*
X150840000Y-90506429D01*
X150768571Y-90363571D01*
X150625714Y-90292143D01*
X150268571Y-90292143D01*
X150125714Y-90220714D01*
X149625714Y-89863571D02*
X149054285Y-89863571D01*
X149411428Y-89363571D02*
X149411428Y-90649286D01*
X149340000Y-90792143D01*
X149197142Y-90863571D01*
X149054285Y-90863571D01*
X147625714Y-89863571D02*
X147054285Y-89863571D01*
X147411428Y-89363571D02*
X147411428Y-90649286D01*
X147340000Y-90792143D01*
X147197142Y-90863571D01*
X147054285Y-90863571D01*
X146554285Y-90863571D02*
X146554285Y-89363571D01*
X145911428Y-90863571D02*
X145911428Y-90077857D01*
X145982857Y-89935000D01*
X146125714Y-89863571D01*
X146339999Y-89863571D01*
X146482857Y-89935000D01*
X146554285Y-90006429D01*
X144625714Y-90792143D02*
X144768571Y-90863571D01*
X145054285Y-90863571D01*
X145197142Y-90792143D01*
X145268571Y-90649286D01*
X145268571Y-90077857D01*
X145197142Y-89935000D01*
X145054285Y-89863571D01*
X144768571Y-89863571D01*
X144625714Y-89935000D01*
X144554285Y-90077857D01*
X144554285Y-90220714D01*
X145268571Y-90363571D01*
X142840000Y-90792143D02*
X142697143Y-90863571D01*
X142411428Y-90863571D01*
X142268571Y-90792143D01*
X142197143Y-90649286D01*
X142197143Y-90577857D01*
X142268571Y-90435000D01*
X142411428Y-90363571D01*
X142625714Y-90363571D01*
X142768571Y-90292143D01*
X142840000Y-90149286D01*
X142840000Y-90077857D01*
X142768571Y-89935000D01*
X142625714Y-89863571D01*
X142411428Y-89863571D01*
X142268571Y-89935000D01*
X140911428Y-90863571D02*
X140911428Y-90077857D01*
X140982857Y-89935000D01*
X141125714Y-89863571D01*
X141411428Y-89863571D01*
X141554285Y-89935000D01*
X140911428Y-90792143D02*
X141054285Y-90863571D01*
X141411428Y-90863571D01*
X141554285Y-90792143D01*
X141625714Y-90649286D01*
X141625714Y-90506429D01*
X141554285Y-90363571D01*
X141411428Y-90292143D01*
X141054285Y-90292143D01*
X140911428Y-90220714D01*
X140197142Y-90863571D02*
X140197142Y-89863571D01*
X140197142Y-90006429D02*
X140125714Y-89935000D01*
X139982856Y-89863571D01*
X139768571Y-89863571D01*
X139625714Y-89935000D01*
X139554285Y-90077857D01*
X139554285Y-90863571D01*
X139554285Y-90077857D02*
X139482856Y-89935000D01*
X139339999Y-89863571D01*
X139125714Y-89863571D01*
X138982856Y-89935000D01*
X138911428Y-90077857D01*
X138911428Y-90863571D01*
X137625714Y-90792143D02*
X137768571Y-90863571D01*
X138054285Y-90863571D01*
X138197142Y-90792143D01*
X138268571Y-90649286D01*
X138268571Y-90077857D01*
X138197142Y-89935000D01*
X138054285Y-89863571D01*
X137768571Y-89863571D01*
X137625714Y-89935000D01*
X137554285Y-90077857D01*
X137554285Y-90220714D01*
X138268571Y-90363571D01*
X135982857Y-89863571D02*
X135411428Y-89863571D01*
X135768571Y-89363571D02*
X135768571Y-90649286D01*
X135697143Y-90792143D01*
X135554285Y-90863571D01*
X135411428Y-90863571D01*
X134911428Y-90863571D02*
X134911428Y-89863571D01*
X134911428Y-89363571D02*
X134982857Y-89435000D01*
X134911428Y-89506429D01*
X134840000Y-89435000D01*
X134911428Y-89363571D01*
X134911428Y-89506429D01*
X134197142Y-90863571D02*
X134197142Y-89863571D01*
X134197142Y-90006429D02*
X134125714Y-89935000D01*
X133982856Y-89863571D01*
X133768571Y-89863571D01*
X133625714Y-89935000D01*
X133554285Y-90077857D01*
X133554285Y-90863571D01*
X133554285Y-90077857D02*
X133482856Y-89935000D01*
X133339999Y-89863571D01*
X133125714Y-89863571D01*
X132982856Y-89935000D01*
X132911428Y-90077857D01*
X132911428Y-90863571D01*
X131625714Y-90792143D02*
X131768571Y-90863571D01*
X132054285Y-90863571D01*
X132197142Y-90792143D01*
X132268571Y-90649286D01*
X132268571Y-90077857D01*
X132197142Y-89935000D01*
X132054285Y-89863571D01*
X131768571Y-89863571D01*
X131625714Y-89935000D01*
X131554285Y-90077857D01*
X131554285Y-90220714D01*
X132268571Y-90363571D01*
X130911428Y-90720714D02*
X130840000Y-90792143D01*
X130911428Y-90863571D01*
X130982857Y-90792143D01*
X130911428Y-90720714D01*
X130911428Y-90863571D01*
D12*
G36*
X151103251Y-99960036D02*
X151059456Y-99976972D01*
X150992707Y-100010601D01*
X150896863Y-100063334D01*
X150889401Y-100067525D01*
X150801129Y-100118001D01*
X150726637Y-100162223D01*
X150673240Y-100195731D01*
X150648254Y-100214064D01*
X150647555Y-100214962D01*
X150653591Y-100240414D01*
X150681277Y-100297255D01*
X150728812Y-100382389D01*
X150794389Y-100492717D01*
X150876203Y-100625144D01*
X150972452Y-100776571D01*
X150996406Y-100813707D01*
X151058817Y-100916757D01*
X151104263Y-101005432D01*
X151128754Y-101071714D01*
X151131267Y-101084807D01*
X151130152Y-101142443D01*
X151117657Y-101233865D01*
X151095340Y-101353208D01*
X151064760Y-101494609D01*
X151027472Y-101652203D01*
X150985035Y-101820126D01*
X150939006Y-101992514D01*
X150890943Y-102163501D01*
X150842403Y-102327224D01*
X150794943Y-102477818D01*
X150750122Y-102609420D01*
X150709497Y-102716163D01*
X150681177Y-102779494D01*
X150647817Y-102846957D01*
X150616318Y-102911511D01*
X150614613Y-102915045D01*
X150562502Y-102980250D01*
X150486446Y-103024156D01*
X150397908Y-103045197D01*
X150308352Y-103041807D01*
X150229242Y-103012423D01*
X150184736Y-102973736D01*
X150120644Y-102867636D01*
X150073678Y-102735405D01*
X150047910Y-102590527D01*
X150044259Y-102508394D01*
X150058961Y-102355105D01*
X150102110Y-102228166D01*
X150176028Y-102121418D01*
X150199079Y-102097657D01*
X150267675Y-102031009D01*
X150272386Y-101559916D01*
X150277097Y-101088822D01*
X150157054Y-100907106D01*
X150100723Y-100824856D01*
X150046472Y-100750865D01*
X150002041Y-100695448D01*
X149982944Y-100675056D01*
X149928876Y-100624723D01*
X149855650Y-100664158D01*
X149809367Y-100692415D01*
X149784043Y-100714354D01*
X149782424Y-100718299D01*
X149765116Y-100735023D01*
X149735503Y-100747476D01*
X149706886Y-100758700D01*
X149663066Y-100780024D01*
X149600282Y-100813529D01*
X149514772Y-100861296D01*
X149402774Y-100925407D01*
X149260527Y-101007944D01*
X149183227Y-101053065D01*
X149092298Y-101107111D01*
X149032661Y-101145604D01*
X148999039Y-101173044D01*
X148986156Y-101193934D01*
X148988735Y-101212775D01*
X148990885Y-101217152D01*
X149011803Y-101244714D01*
X149056560Y-101296416D01*
X149119943Y-101366475D01*
X149196738Y-101449107D01*
X149263156Y-101519156D01*
X149416210Y-101685414D01*
X149535944Y-101829519D01*
X149623427Y-101952921D01*
X149679726Y-102057068D01*
X149698716Y-102109954D01*
X149706560Y-102156250D01*
X149714662Y-102235221D01*
X149722309Y-102337846D01*
X149728788Y-102455103D01*
X149731837Y-102529248D01*
X149736092Y-102657427D01*
X149737964Y-102751138D01*
X149736901Y-102817583D01*
X149732354Y-102863961D01*
X149723773Y-102897474D01*
X149710606Y-102925321D01*
X149700265Y-102942324D01*
X149640544Y-103007862D01*
X149563589Y-103053532D01*
X149482620Y-103073450D01*
X149421942Y-103066244D01*
X149367001Y-103035066D01*
X149298133Y-102979230D01*
X149224995Y-102908474D01*
X149157248Y-102832537D01*
X149104550Y-102761159D01*
X149085147Y-102726668D01*
X149056081Y-102679441D01*
X149003217Y-102607506D01*
X148931384Y-102516485D01*
X148845412Y-102412000D01*
X148750132Y-102299675D01*
X148650373Y-102185130D01*
X148550966Y-102073990D01*
X148456741Y-101971875D01*
X148372527Y-101884408D01*
X148306409Y-101820198D01*
X148233001Y-101756057D01*
X148171247Y-101708763D01*
X148127934Y-101683235D01*
X148113555Y-101680429D01*
X148091521Y-101691752D01*
X148036562Y-101722144D01*
X147951848Y-101769780D01*
X147840552Y-101832835D01*
X147705844Y-101909485D01*
X147550897Y-101997905D01*
X147378881Y-102096270D01*
X147192968Y-102202756D01*
X146996330Y-102315537D01*
X146792137Y-102432789D01*
X146583561Y-102552687D01*
X146373775Y-102673407D01*
X146165948Y-102793123D01*
X145963253Y-102910011D01*
X145768860Y-103022246D01*
X145585942Y-103128004D01*
X145417670Y-103225460D01*
X145267215Y-103312788D01*
X145137749Y-103388165D01*
X145032443Y-103449765D01*
X144954468Y-103495764D01*
X144906996Y-103524337D01*
X144893237Y-103533304D01*
X144911769Y-103535076D01*
X144970067Y-103536799D01*
X145066191Y-103538464D01*
X145198201Y-103540063D01*
X145364154Y-103541587D01*
X145562111Y-103543029D01*
X145790130Y-103544380D01*
X146046271Y-103545632D01*
X146328592Y-103546776D01*
X146635153Y-103547804D01*
X146964013Y-103548708D01*
X147313231Y-103549479D01*
X147680865Y-103550109D01*
X148064976Y-103550590D01*
X148463623Y-103550914D01*
X148874863Y-103551072D01*
X149047420Y-103551087D01*
X153221414Y-103551087D01*
X152923732Y-103034954D01*
X152860714Y-102925665D01*
X152779594Y-102784940D01*
X152683084Y-102617486D01*
X152573897Y-102428012D01*
X152454745Y-102221223D01*
X152328340Y-102001828D01*
X152197395Y-101774533D01*
X152064621Y-101544046D01*
X151932731Y-101315073D01*
X151899376Y-101257163D01*
X151777753Y-101046232D01*
X151661772Y-100845535D01*
X151553175Y-100658059D01*
X151453706Y-100486792D01*
X151365108Y-100334723D01*
X151289122Y-100204838D01*
X151227493Y-100100125D01*
X151181963Y-100023573D01*
X151154275Y-99978169D01*
X151146528Y-99966609D01*
X151130228Y-99957385D01*
X151103251Y-99960036D01*
X151103251Y-99960036D01*
G37*
X151103251Y-99960036D02*
X151059456Y-99976972D01*
X150992707Y-100010601D01*
X150896863Y-100063334D01*
X150889401Y-100067525D01*
X150801129Y-100118001D01*
X150726637Y-100162223D01*
X150673240Y-100195731D01*
X150648254Y-100214064D01*
X150647555Y-100214962D01*
X150653591Y-100240414D01*
X150681277Y-100297255D01*
X150728812Y-100382389D01*
X150794389Y-100492717D01*
X150876203Y-100625144D01*
X150972452Y-100776571D01*
X150996406Y-100813707D01*
X151058817Y-100916757D01*
X151104263Y-101005432D01*
X151128754Y-101071714D01*
X151131267Y-101084807D01*
X151130152Y-101142443D01*
X151117657Y-101233865D01*
X151095340Y-101353208D01*
X151064760Y-101494609D01*
X151027472Y-101652203D01*
X150985035Y-101820126D01*
X150939006Y-101992514D01*
X150890943Y-102163501D01*
X150842403Y-102327224D01*
X150794943Y-102477818D01*
X150750122Y-102609420D01*
X150709497Y-102716163D01*
X150681177Y-102779494D01*
X150647817Y-102846957D01*
X150616318Y-102911511D01*
X150614613Y-102915045D01*
X150562502Y-102980250D01*
X150486446Y-103024156D01*
X150397908Y-103045197D01*
X150308352Y-103041807D01*
X150229242Y-103012423D01*
X150184736Y-102973736D01*
X150120644Y-102867636D01*
X150073678Y-102735405D01*
X150047910Y-102590527D01*
X150044259Y-102508394D01*
X150058961Y-102355105D01*
X150102110Y-102228166D01*
X150176028Y-102121418D01*
X150199079Y-102097657D01*
X150267675Y-102031009D01*
X150272386Y-101559916D01*
X150277097Y-101088822D01*
X150157054Y-100907106D01*
X150100723Y-100824856D01*
X150046472Y-100750865D01*
X150002041Y-100695448D01*
X149982944Y-100675056D01*
X149928876Y-100624723D01*
X149855650Y-100664158D01*
X149809367Y-100692415D01*
X149784043Y-100714354D01*
X149782424Y-100718299D01*
X149765116Y-100735023D01*
X149735503Y-100747476D01*
X149706886Y-100758700D01*
X149663066Y-100780024D01*
X149600282Y-100813529D01*
X149514772Y-100861296D01*
X149402774Y-100925407D01*
X149260527Y-101007944D01*
X149183227Y-101053065D01*
X149092298Y-101107111D01*
X149032661Y-101145604D01*
X148999039Y-101173044D01*
X148986156Y-101193934D01*
X148988735Y-101212775D01*
X148990885Y-101217152D01*
X149011803Y-101244714D01*
X149056560Y-101296416D01*
X149119943Y-101366475D01*
X149196738Y-101449107D01*
X149263156Y-101519156D01*
X149416210Y-101685414D01*
X149535944Y-101829519D01*
X149623427Y-101952921D01*
X149679726Y-102057068D01*
X149698716Y-102109954D01*
X149706560Y-102156250D01*
X149714662Y-102235221D01*
X149722309Y-102337846D01*
X149728788Y-102455103D01*
X149731837Y-102529248D01*
X149736092Y-102657427D01*
X149737964Y-102751138D01*
X149736901Y-102817583D01*
X149732354Y-102863961D01*
X149723773Y-102897474D01*
X149710606Y-102925321D01*
X149700265Y-102942324D01*
X149640544Y-103007862D01*
X149563589Y-103053532D01*
X149482620Y-103073450D01*
X149421942Y-103066244D01*
X149367001Y-103035066D01*
X149298133Y-102979230D01*
X149224995Y-102908474D01*
X149157248Y-102832537D01*
X149104550Y-102761159D01*
X149085147Y-102726668D01*
X149056081Y-102679441D01*
X149003217Y-102607506D01*
X148931384Y-102516485D01*
X148845412Y-102412000D01*
X148750132Y-102299675D01*
X148650373Y-102185130D01*
X148550966Y-102073990D01*
X148456741Y-101971875D01*
X148372527Y-101884408D01*
X148306409Y-101820198D01*
X148233001Y-101756057D01*
X148171247Y-101708763D01*
X148127934Y-101683235D01*
X148113555Y-101680429D01*
X148091521Y-101691752D01*
X148036562Y-101722144D01*
X147951848Y-101769780D01*
X147840552Y-101832835D01*
X147705844Y-101909485D01*
X147550897Y-101997905D01*
X147378881Y-102096270D01*
X147192968Y-102202756D01*
X146996330Y-102315537D01*
X146792137Y-102432789D01*
X146583561Y-102552687D01*
X146373775Y-102673407D01*
X146165948Y-102793123D01*
X145963253Y-102910011D01*
X145768860Y-103022246D01*
X145585942Y-103128004D01*
X145417670Y-103225460D01*
X145267215Y-103312788D01*
X145137749Y-103388165D01*
X145032443Y-103449765D01*
X144954468Y-103495764D01*
X144906996Y-103524337D01*
X144893237Y-103533304D01*
X144911769Y-103535076D01*
X144970067Y-103536799D01*
X145066191Y-103538464D01*
X145198201Y-103540063D01*
X145364154Y-103541587D01*
X145562111Y-103543029D01*
X145790130Y-103544380D01*
X146046271Y-103545632D01*
X146328592Y-103546776D01*
X146635153Y-103547804D01*
X146964013Y-103548708D01*
X147313231Y-103549479D01*
X147680865Y-103550109D01*
X148064976Y-103550590D01*
X148463623Y-103550914D01*
X148874863Y-103551072D01*
X149047420Y-103551087D01*
X153221414Y-103551087D01*
X152923732Y-103034954D01*
X152860714Y-102925665D01*
X152779594Y-102784940D01*
X152683084Y-102617486D01*
X152573897Y-102428012D01*
X152454745Y-102221223D01*
X152328340Y-102001828D01*
X152197395Y-101774533D01*
X152064621Y-101544046D01*
X151932731Y-101315073D01*
X151899376Y-101257163D01*
X151777753Y-101046232D01*
X151661772Y-100845535D01*
X151553175Y-100658059D01*
X151453706Y-100486792D01*
X151365108Y-100334723D01*
X151289122Y-100204838D01*
X151227493Y-100100125D01*
X151181963Y-100023573D01*
X151154275Y-99978169D01*
X151146528Y-99966609D01*
X151130228Y-99957385D01*
X151103251Y-99960036D01*
G36*
X146167854Y-99883908D02*
X146152531Y-99909590D01*
X146118089Y-99968469D01*
X146066231Y-100057602D01*
X145998660Y-100174049D01*
X145917079Y-100314867D01*
X145823191Y-100477114D01*
X145718701Y-100657849D01*
X145605310Y-100854130D01*
X145484722Y-101063016D01*
X145360687Y-101278017D01*
X145234013Y-101497649D01*
X145112392Y-101708495D01*
X144997588Y-101907499D01*
X144891362Y-102091607D01*
X144795477Y-102257765D01*
X144711698Y-102402917D01*
X144641786Y-102524009D01*
X144587504Y-102617988D01*
X144550615Y-102681797D01*
X144533269Y-102711719D01*
X144504993Y-102762271D01*
X144489618Y-102793914D01*
X144488776Y-102799420D01*
X144507512Y-102789082D01*
X144559614Y-102759407D01*
X144642360Y-102711968D01*
X144753025Y-102648333D01*
X144888886Y-102570074D01*
X145047219Y-102478759D01*
X145225302Y-102375960D01*
X145420410Y-102263247D01*
X145629820Y-102142189D01*
X145850809Y-102014357D01*
X145934887Y-101965702D01*
X146159830Y-101835567D01*
X146374476Y-101711497D01*
X146576068Y-101595077D01*
X146761852Y-101487893D01*
X146929072Y-101391531D01*
X147074973Y-101307578D01*
X147196799Y-101237620D01*
X147291796Y-101183243D01*
X147357208Y-101146034D01*
X147390280Y-101127578D01*
X147393738Y-101125830D01*
X147383661Y-101110005D01*
X147348593Y-101067692D01*
X147292115Y-101002790D01*
X147217807Y-100919196D01*
X147129248Y-100820809D01*
X147030020Y-100711525D01*
X146923702Y-100595244D01*
X146813875Y-100475862D01*
X146704118Y-100357277D01*
X146598012Y-100243388D01*
X146499138Y-100138092D01*
X146411074Y-100045287D01*
X146337401Y-99968870D01*
X146281700Y-99912740D01*
X146262597Y-99894335D01*
X146199292Y-99834872D01*
X146167854Y-99883908D01*
X146167854Y-99883908D01*
G37*
X146167854Y-99883908D02*
X146152531Y-99909590D01*
X146118089Y-99968469D01*
X146066231Y-100057602D01*
X145998660Y-100174049D01*
X145917079Y-100314867D01*
X145823191Y-100477114D01*
X145718701Y-100657849D01*
X145605310Y-100854130D01*
X145484722Y-101063016D01*
X145360687Y-101278017D01*
X145234013Y-101497649D01*
X145112392Y-101708495D01*
X144997588Y-101907499D01*
X144891362Y-102091607D01*
X144795477Y-102257765D01*
X144711698Y-102402917D01*
X144641786Y-102524009D01*
X144587504Y-102617988D01*
X144550615Y-102681797D01*
X144533269Y-102711719D01*
X144504993Y-102762271D01*
X144489618Y-102793914D01*
X144488776Y-102799420D01*
X144507512Y-102789082D01*
X144559614Y-102759407D01*
X144642360Y-102711968D01*
X144753025Y-102648333D01*
X144888886Y-102570074D01*
X145047219Y-102478759D01*
X145225302Y-102375960D01*
X145420410Y-102263247D01*
X145629820Y-102142189D01*
X145850809Y-102014357D01*
X145934887Y-101965702D01*
X146159830Y-101835567D01*
X146374476Y-101711497D01*
X146576068Y-101595077D01*
X146761852Y-101487893D01*
X146929072Y-101391531D01*
X147074973Y-101307578D01*
X147196799Y-101237620D01*
X147291796Y-101183243D01*
X147357208Y-101146034D01*
X147390280Y-101127578D01*
X147393738Y-101125830D01*
X147383661Y-101110005D01*
X147348593Y-101067692D01*
X147292115Y-101002790D01*
X147217807Y-100919196D01*
X147129248Y-100820809D01*
X147030020Y-100711525D01*
X146923702Y-100595244D01*
X146813875Y-100475862D01*
X146704118Y-100357277D01*
X146598012Y-100243388D01*
X146499138Y-100138092D01*
X146411074Y-100045287D01*
X146337401Y-99968870D01*
X146281700Y-99912740D01*
X146262597Y-99894335D01*
X146199292Y-99834872D01*
X146167854Y-99883908D01*
G36*
X148623122Y-95644166D02*
X148592124Y-95694538D01*
X148544366Y-95774341D01*
X148481806Y-95880180D01*
X148406403Y-96008659D01*
X148320115Y-96156384D01*
X148224899Y-96319958D01*
X148122715Y-96495987D01*
X148015519Y-96681075D01*
X147905271Y-96871827D01*
X147793929Y-97064847D01*
X147683450Y-97256741D01*
X147575793Y-97444111D01*
X147472916Y-97623565D01*
X147376777Y-97791705D01*
X147289335Y-97945137D01*
X147212547Y-98080465D01*
X147148372Y-98194294D01*
X147098767Y-98283229D01*
X147065691Y-98343874D01*
X147051103Y-98372833D01*
X147050569Y-98374644D01*
X147068679Y-98399217D01*
X147119020Y-98436807D01*
X147195605Y-98483722D01*
X147292448Y-98536274D01*
X147393833Y-98586213D01*
X147531785Y-98646769D01*
X147676858Y-98701179D01*
X147834050Y-98750651D01*
X148008357Y-98796395D01*
X148204778Y-98839620D01*
X148428311Y-98881534D01*
X148683952Y-98923347D01*
X148948394Y-98962284D01*
X149178148Y-98996828D01*
X149371083Y-99031026D01*
X149532036Y-99066577D01*
X149665845Y-99105182D01*
X149777350Y-99148539D01*
X149871386Y-99198348D01*
X149952794Y-99256309D01*
X150026410Y-99324120D01*
X150050149Y-99349312D01*
X150101603Y-99407958D01*
X150139666Y-99455815D01*
X150157323Y-99483958D01*
X150157794Y-99486265D01*
X150163972Y-99500416D01*
X150185410Y-99500575D01*
X150226467Y-99484861D01*
X150291499Y-99451391D01*
X150384863Y-99398281D01*
X150449748Y-99360088D01*
X150546499Y-99300385D01*
X150621688Y-99249263D01*
X150670261Y-99210399D01*
X150687165Y-99187472D01*
X150687155Y-99187305D01*
X150676672Y-99165456D01*
X150647069Y-99110739D01*
X150600062Y-99026136D01*
X150537371Y-98914629D01*
X150460714Y-98779201D01*
X150371809Y-98622833D01*
X150272374Y-98448507D01*
X150164128Y-98259206D01*
X150048789Y-98057911D01*
X149928076Y-97847605D01*
X149803706Y-97631271D01*
X149677399Y-97411889D01*
X149550873Y-97192442D01*
X149425845Y-96975912D01*
X149304035Y-96765281D01*
X149187161Y-96563532D01*
X149076940Y-96373647D01*
X148975092Y-96198606D01*
X148883335Y-96041394D01*
X148803387Y-95904991D01*
X148736966Y-95792380D01*
X148685791Y-95706543D01*
X148651580Y-95650462D01*
X148636052Y-95627119D01*
X148635402Y-95626621D01*
X148623122Y-95644166D01*
X148623122Y-95644166D01*
G37*
X148623122Y-95644166D02*
X148592124Y-95694538D01*
X148544366Y-95774341D01*
X148481806Y-95880180D01*
X148406403Y-96008659D01*
X148320115Y-96156384D01*
X148224899Y-96319958D01*
X148122715Y-96495987D01*
X148015519Y-96681075D01*
X147905271Y-96871827D01*
X147793929Y-97064847D01*
X147683450Y-97256741D01*
X147575793Y-97444111D01*
X147472916Y-97623565D01*
X147376777Y-97791705D01*
X147289335Y-97945137D01*
X147212547Y-98080465D01*
X147148372Y-98194294D01*
X147098767Y-98283229D01*
X147065691Y-98343874D01*
X147051103Y-98372833D01*
X147050569Y-98374644D01*
X147068679Y-98399217D01*
X147119020Y-98436807D01*
X147195605Y-98483722D01*
X147292448Y-98536274D01*
X147393833Y-98586213D01*
X147531785Y-98646769D01*
X147676858Y-98701179D01*
X147834050Y-98750651D01*
X148008357Y-98796395D01*
X148204778Y-98839620D01*
X148428311Y-98881534D01*
X148683952Y-98923347D01*
X148948394Y-98962284D01*
X149178148Y-98996828D01*
X149371083Y-99031026D01*
X149532036Y-99066577D01*
X149665845Y-99105182D01*
X149777350Y-99148539D01*
X149871386Y-99198348D01*
X149952794Y-99256309D01*
X150026410Y-99324120D01*
X150050149Y-99349312D01*
X150101603Y-99407958D01*
X150139666Y-99455815D01*
X150157323Y-99483958D01*
X150157794Y-99486265D01*
X150163972Y-99500416D01*
X150185410Y-99500575D01*
X150226467Y-99484861D01*
X150291499Y-99451391D01*
X150384863Y-99398281D01*
X150449748Y-99360088D01*
X150546499Y-99300385D01*
X150621688Y-99249263D01*
X150670261Y-99210399D01*
X150687165Y-99187472D01*
X150687155Y-99187305D01*
X150676672Y-99165456D01*
X150647069Y-99110739D01*
X150600062Y-99026136D01*
X150537371Y-98914629D01*
X150460714Y-98779201D01*
X150371809Y-98622833D01*
X150272374Y-98448507D01*
X150164128Y-98259206D01*
X150048789Y-98057911D01*
X149928076Y-97847605D01*
X149803706Y-97631271D01*
X149677399Y-97411889D01*
X149550873Y-97192442D01*
X149425845Y-96975912D01*
X149304035Y-96765281D01*
X149187161Y-96563532D01*
X149076940Y-96373647D01*
X148975092Y-96198606D01*
X148883335Y-96041394D01*
X148803387Y-95904991D01*
X148736966Y-95792380D01*
X148685791Y-95706543D01*
X148651580Y-95650462D01*
X148636052Y-95627119D01*
X148635402Y-95626621D01*
X148623122Y-95644166D01*
M02*
