M48
;DRILL file {KiCad 4.0.7-e2-6376~58~ubuntu16.04.1} date Mon Mar 19 23:41:17 2018
;FORMAT={3:3/ absolute / metric / suppress leading zeros}
FMAT,2
METRIC,TZ
T1C0.400
T2C0.900
T3C1.000
T4C1.016
T5C1.100
T6C1.200
T7C3.100
%
G90
G05
M71
T1
X121920Y-84582
X121920Y-90932
X123444Y-96012
X133350Y-79756
X134620Y-97282
X139700Y-87630
X140716Y-73406
X140716Y-78740
X142240Y-89662
X146050Y-92202
X147320Y-101346
X148590Y-99822
X149860Y-90932
X151130Y-94742
X152400Y-100584
X153670Y-78740
X153670Y-98552
X156210Y-81280
X157480Y-78994
X158750Y-74168
X161290Y-101346
X163068Y-121666
X168148Y-101346
X168148Y-108204
X173228Y-75184
T2
X144526Y-118618
X144526Y-121918
X147026Y-118618
X147026Y-121918
X149526Y-118618
X149526Y-121918
T3
X117348Y-79502
X117348Y-82042
X117348Y-84582
X117348Y-87122
X117348Y-89662
X117348Y-92202
X117348Y-94742
X117348Y-97282
X117348Y-99822
X117348Y-102362
X117348Y-104902
X117348Y-107442
X117348Y-109982
X117348Y-112522
X123188Y-69342
X125728Y-69342
X125728Y-71882
X127762Y-85598
X127762Y-103886
X128268Y-69342
X128268Y-71882
X130302Y-85598
X130302Y-103886
X130808Y-69342
X130808Y-71882
X133348Y-69342
X133348Y-71882
X135888Y-69342
X135888Y-71882
X138428Y-69342
X138428Y-71882
X138430Y-85598
X138430Y-103886
X140968Y-69342
X140968Y-71882
X140970Y-85598
X140970Y-103886
X143508Y-69342
X143508Y-71882
X146048Y-69342
X146048Y-71882
X148588Y-69342
X148588Y-71882
X151128Y-69342
X151128Y-71882
X153668Y-69342
X153668Y-71882
X156208Y-69342
X156208Y-71882
X158748Y-69342
X158748Y-71882
X161288Y-69342
X161288Y-71882
X163828Y-69342
X163828Y-71882
X166368Y-69342
X166368Y-71882
X168908Y-69342
X168908Y-71882
X171448Y-69342
X171448Y-71882
X171704Y-76708
X171704Y-79248
T4
X123188Y-71882
T5
X166370Y-106022
X166370Y-112522
X170870Y-106022
X170870Y-112522
T6
X125222Y-119380
X127762Y-119380
X130302Y-119380
X135128Y-114554
X135890Y-119380
X138430Y-119380
X138938Y-114554
X144526Y-113792
X147066Y-113792
X149606Y-113792
X154178Y-119380
X156718Y-119380
X165100Y-119380
X167640Y-119380
X176022Y-87630
X176022Y-90170
X176022Y-96012
X176022Y-98552
X176022Y-101092
X176022Y-103632
X176022Y-108204
X176022Y-110744
X176022Y-113284
X176276Y-77216
X176276Y-79756
X176276Y-82296
T7
X118318Y-70611
X118318Y-119612
X122542Y-76505
X122570Y-113589
X176318Y-70611
X176318Y-119612
T0
M30
