G04 #@! TF.FileFunction,Copper,L2,Bot,Signal*
%FSLAX46Y46*%
G04 Gerber Fmt 4.6, Leading zero omitted, Abs format (unit mm)*
G04 Created by KiCad (PCBNEW 4.0.7-e2-6376~58~ubuntu16.04.1) date Mon Mar 19 23:41:14 2018*
%MOMM*%
%LPD*%
G01*
G04 APERTURE LIST*
%ADD10C,0.100000*%
%ADD11R,2.600000X2.000000*%
%ADD12O,2.600000X2.000000*%
%ADD13R,2.000000X2.600000*%
%ADD14O,2.000000X2.600000*%
%ADD15R,1.727200X1.727200*%
%ADD16O,1.700000X1.700000*%
%ADD17R,1.700000X1.700000*%
%ADD18R,1.400000X1.400000*%
%ADD19C,1.400000*%
%ADD20R,1.800000X3.600000*%
%ADD21O,1.800000X3.600000*%
%ADD22C,2.000000*%
%ADD23C,0.600000*%
%ADD24C,0.300000*%
%ADD25C,0.250000*%
%ADD26C,0.152400*%
G04 APERTURE END LIST*
D10*
D11*
X176276000Y-77216000D03*
D12*
X176276000Y-79756000D03*
X176276000Y-82296000D03*
D13*
X156718000Y-119380000D03*
D14*
X154178000Y-119380000D03*
D13*
X167640000Y-119380000D03*
D14*
X165100000Y-119380000D03*
D13*
X149606000Y-113792000D03*
D14*
X147066000Y-113792000D03*
X144526000Y-113792000D03*
D13*
X130302000Y-119380000D03*
D14*
X127762000Y-119380000D03*
X125222000Y-119380000D03*
D15*
X123188200Y-71881500D03*
D16*
X123188200Y-69341500D03*
X125728200Y-71881500D03*
X125728200Y-69341500D03*
X128268200Y-71881500D03*
X128268200Y-69341500D03*
X130808200Y-71881500D03*
X130808200Y-69341500D03*
X133348200Y-71881500D03*
X133348200Y-69341500D03*
X135888200Y-71881500D03*
X135888200Y-69341500D03*
X138428200Y-71881500D03*
X138428200Y-69341500D03*
X140968200Y-71881500D03*
X140968200Y-69341500D03*
X143508200Y-71881500D03*
X143508200Y-69341500D03*
X146048200Y-71881500D03*
X146048200Y-69341500D03*
X148588200Y-71881500D03*
X148588200Y-69341500D03*
X151128200Y-71881500D03*
X151128200Y-69341500D03*
X153668200Y-71881500D03*
X153668200Y-69341500D03*
X156208200Y-71881500D03*
X156208200Y-69341500D03*
X158748200Y-71881500D03*
X158748200Y-69341500D03*
X161288200Y-71881500D03*
X161288200Y-69341500D03*
X163828200Y-71881500D03*
X163828200Y-69341500D03*
X166368200Y-71881500D03*
X166368200Y-69341500D03*
X168908200Y-71881500D03*
X168908200Y-69341500D03*
X171448200Y-71881500D03*
X171448200Y-69341500D03*
D11*
X176022000Y-96012000D03*
D12*
X176022000Y-98552000D03*
X176022000Y-101092000D03*
X176022000Y-103632000D03*
D11*
X176022000Y-87630000D03*
D12*
X176022000Y-90170000D03*
D17*
X171704000Y-76708000D03*
D16*
X171704000Y-79248000D03*
D18*
X144526000Y-118618000D03*
D19*
X147026000Y-118618000D03*
X149526000Y-118618000D03*
X144526000Y-121918000D03*
X147026000Y-121918000D03*
X149526000Y-121918000D03*
D13*
X138430000Y-119380000D03*
D14*
X135890000Y-119380000D03*
D11*
X176022000Y-108204000D03*
D12*
X176022000Y-110744000D03*
X176022000Y-113284000D03*
D20*
X135128000Y-114554000D03*
D21*
X138938000Y-114554000D03*
D17*
X117348000Y-112522000D03*
D16*
X117348000Y-109982000D03*
X117348000Y-107442000D03*
X117348000Y-104902000D03*
X117348000Y-102362000D03*
X117348000Y-99822000D03*
X117348000Y-97282000D03*
X117348000Y-94742000D03*
X117348000Y-92202000D03*
X117348000Y-89662000D03*
X117348000Y-87122000D03*
X117348000Y-84582000D03*
X117348000Y-82042000D03*
X117348000Y-79502000D03*
D22*
X170870000Y-112522000D03*
X166370000Y-112522000D03*
X170870000Y-106022000D03*
X166370000Y-106022000D03*
D23*
X173228000Y-75184000D03*
X133350000Y-79756000D03*
X163068000Y-121666000D03*
X158750000Y-74168000D03*
X168148000Y-108204000D03*
X168148000Y-101346000D03*
X161290000Y-101346000D03*
X123444000Y-96012000D03*
X153670000Y-98552000D03*
X153670000Y-78740000D03*
X140716000Y-78740000D03*
X140716000Y-73406000D03*
X134620000Y-97282000D03*
X139700000Y-87630000D03*
X142240000Y-89662000D03*
X146050000Y-92202000D03*
X148590000Y-99822000D03*
X147320000Y-101346000D03*
X151130000Y-94742000D03*
X149860000Y-90932000D03*
X121920000Y-90932000D03*
X121920000Y-84582000D03*
X152400000Y-100584000D03*
X156210000Y-81280000D03*
X157480000Y-78994000D03*
D24*
X173228000Y-75184000D02*
X173228000Y-73660000D01*
X173228000Y-73660000D02*
X171449500Y-71881500D01*
X171449500Y-71881500D02*
X171448200Y-71881500D01*
X133348200Y-71881500D02*
X133348200Y-79754200D01*
X133348200Y-79754200D02*
X133350000Y-79756000D01*
X176276000Y-82296000D02*
X173228000Y-82296000D01*
X173228000Y-82296000D02*
X173228000Y-73660000D01*
X173228000Y-73660000D02*
X171449500Y-71881500D01*
X171449500Y-71881500D02*
X171448200Y-71881500D01*
X176022000Y-90170000D02*
X173228000Y-90170000D01*
X173228000Y-90170000D02*
X173228000Y-73660000D01*
X173228000Y-73660000D02*
X171449500Y-71881500D01*
X171449500Y-71881500D02*
X171448200Y-71881500D01*
X173228000Y-103632000D02*
X173228000Y-112776000D01*
X173736000Y-113284000D02*
X176022000Y-113284000D01*
X173228000Y-112776000D02*
X173736000Y-113284000D01*
X173228000Y-90170000D02*
X173228000Y-103632000D01*
X173228000Y-103632000D02*
X176022000Y-103632000D01*
X144526000Y-113792000D02*
X144526000Y-118618000D01*
D25*
X161288200Y-69341500D02*
X161289500Y-69341500D01*
X161289500Y-69341500D02*
X162560000Y-70612000D01*
X162560000Y-70612000D02*
X162560000Y-113792000D01*
X162560000Y-113792000D02*
X163068000Y-114300000D01*
X163068000Y-114300000D02*
X163068000Y-121666000D01*
X163828200Y-71881500D02*
X163828200Y-115060200D01*
X163828200Y-115060200D02*
X167640000Y-118872000D01*
X167640000Y-118872000D02*
X167640000Y-119380000D01*
D24*
X143508200Y-71881500D02*
X143508200Y-108710200D01*
X147066000Y-112268000D02*
X147066000Y-113792000D01*
X143508200Y-108710200D02*
X147066000Y-112268000D01*
D25*
X158748200Y-71881500D02*
X158748200Y-74166200D01*
X158748200Y-74166200D02*
X158750000Y-74168000D01*
X161288200Y-71881500D02*
X161288200Y-101344200D01*
X168148000Y-101346000D02*
X168148000Y-108204000D01*
X161288200Y-101344200D02*
X161290000Y-101346000D01*
X130808200Y-69341500D02*
X130808200Y-69597800D01*
X130808200Y-69597800D02*
X129540000Y-70866000D01*
X127762000Y-117602000D02*
X127762000Y-119380000D01*
X129032000Y-116332000D02*
X127762000Y-117602000D01*
X129032000Y-80010000D02*
X129032000Y-116332000D01*
X129286000Y-79756000D02*
X129032000Y-80010000D01*
X129286000Y-73152000D02*
X129286000Y-79756000D01*
X129540000Y-72898000D02*
X129286000Y-73152000D01*
X129540000Y-70866000D02*
X129540000Y-72898000D01*
D26*
X130808200Y-69341500D02*
X130808200Y-69343800D01*
D25*
X133348200Y-69341500D02*
X133348200Y-69343800D01*
X133348200Y-69343800D02*
X132080000Y-70612000D01*
X132080000Y-117348000D02*
X130302000Y-119126000D01*
X132080000Y-115316000D02*
X132080000Y-117348000D01*
X132080000Y-70612000D02*
X132080000Y-115316000D01*
X130302000Y-119126000D02*
X130302000Y-119380000D01*
X125728200Y-71881500D02*
X125728200Y-73912200D01*
X123444000Y-81026000D02*
X123444000Y-96012000D01*
X126238000Y-78232000D02*
X123444000Y-81026000D01*
X126238000Y-74422000D02*
X126238000Y-78232000D01*
X125728200Y-73912200D02*
X126238000Y-74422000D01*
X153670000Y-78740000D02*
X153670000Y-98552000D01*
X140716000Y-73406000D02*
X140716000Y-78740000D01*
X135888200Y-69341500D02*
X135888200Y-69343800D01*
X135888200Y-69343800D02*
X134620000Y-70612000D01*
X134620000Y-70612000D02*
X134620000Y-97282000D01*
X139700000Y-70612000D02*
X140968200Y-69343800D01*
X139700000Y-87630000D02*
X139700000Y-70612000D01*
X140968200Y-69343800D02*
X140968200Y-69341500D01*
D26*
X140968200Y-69343800D02*
X140968200Y-69341500D01*
D25*
X143508200Y-69341500D02*
X143508200Y-69597800D01*
X143508200Y-69597800D02*
X142240000Y-70866000D01*
X142240000Y-70866000D02*
X142240000Y-89662000D01*
D26*
X143508200Y-69343800D02*
X143508200Y-69341500D01*
D25*
X117348000Y-107442000D02*
X117094000Y-107442000D01*
X117094000Y-107442000D02*
X116078000Y-106426000D01*
X116078000Y-106426000D02*
X116078000Y-93472000D01*
X116078000Y-93472000D02*
X117348000Y-92202000D01*
X146048200Y-71881500D02*
X146048200Y-92200200D01*
X146048200Y-92200200D02*
X146050000Y-92202000D01*
X148588200Y-71881500D02*
X148588200Y-99820200D01*
X148588200Y-99820200D02*
X148590000Y-99822000D01*
X148588200Y-69341500D02*
X148588200Y-69597800D01*
X148588200Y-69597800D02*
X147320000Y-70866000D01*
X147320000Y-70866000D02*
X147320000Y-101346000D01*
D26*
X148588200Y-69341500D02*
X148588200Y-69343800D01*
D25*
X117348000Y-94742000D02*
X117602000Y-94742000D01*
X117602000Y-94742000D02*
X118872000Y-96012000D01*
X118872000Y-100838000D02*
X117348000Y-102362000D01*
X118872000Y-96012000D02*
X118872000Y-100838000D01*
X151128200Y-71881500D02*
X151128200Y-94740200D01*
X151128200Y-94740200D02*
X151130000Y-94742000D01*
X149860000Y-70866000D02*
X151128200Y-69597800D01*
X149860000Y-90932000D02*
X149860000Y-70866000D01*
X121920000Y-84582000D02*
X121920000Y-90932000D01*
X151128200Y-69597800D02*
X151128200Y-69341500D01*
X153668200Y-69341500D02*
X153668200Y-69597800D01*
X153668200Y-69597800D02*
X152400000Y-70866000D01*
X152400000Y-70866000D02*
X152400000Y-100584000D01*
D26*
X153668200Y-69341500D02*
X153668200Y-69343800D01*
D25*
X156208200Y-71881500D02*
X156208200Y-81278200D01*
X156208200Y-81278200D02*
X156210000Y-81280000D01*
X156208200Y-69341500D02*
X156209500Y-69341500D01*
X156209500Y-69341500D02*
X157480000Y-70612000D01*
X157480000Y-70612000D02*
X157480000Y-78994000D01*
D26*
X123188200Y-69341500D02*
X123189500Y-69341500D01*
D25*
X168908200Y-71881500D02*
X168908200Y-104060200D01*
X168908200Y-104060200D02*
X170870000Y-106022000D01*
X170870000Y-112522000D02*
X170870000Y-106022000D01*
M02*
